# xmcd
#
# Track frame offsets:
# 150
# 20273
# 35044
# 47937
# 63369
# 80398
# 94954
# 110232
# 127204
# 141397
# 154318
# 165983
#
# Disc length: 2497 seconds
#
# Revision: 0
# Processed by: cddbd v1.4PL0 Copyright (c) Steve Scherf et al.
# Submitted via: Audion 3.0.2 (http://www.panic.com/audion/)
#
DISCID=ac09bf0c
DTITLE=Violet Indiana - Casino
DYEAR=1900
DGENRE=
TTITLE0=jailbird
TTITLE1=bang bang
TTITLE2=purr la perla
TTITLE3=silent
TTITLE4=storm
TTITLE5=sky
TTITLE6=safe word
TTITLE7=ne me quitte pas
TTITLE8=poppy
TTITLE9=torn up
TTITLE10=heaven
TTITLE11=chapter three
EXTD=
EXTT0=
EXTT1=
EXTT2=
EXTT3=
EXTT4=
EXTT5=
EXTT6=
EXTT7=
EXTT8=
EXTT9=
EXTT10=
EXTT11=
PLAYORDER=
